<svg xmlns="http://www.w3.org/2000/svg" viewBox="0 0 64 64" width="64" height="64">
  <defs>
    <linearGradient id="g1" x1="0%" y1="0%" x2="100%" y2="100%">
      <stop offset="0%" stop-color="#34D399"/>
      <stop offset="100%" stop-color="#059669"/>
    </linearGradient>
    <filter id="soft" x="-20%" y="-20%" width="140%" height="140%">
      <feDropShadow dx="0" dy="1.5" stdDeviation="1.5" flood-color="#059669" flood-opacity="0.25"/>
    </filter>
  </defs>

  <!-- rounded square backdrop -->
  <rect x="2" y="2" width="60" height="60" rx="16" fill="url(#g1)" filter="url(#soft)"/>

  <!-- two people, representing 1:1 chat -->
  <circle cx="23" cy="26" r="7" fill="#FFFFFF"/>
  <path d="M23 35c-6.6 0-12 4-12 9v2h24v-2c0-5-5.4-9-12-9z" fill="#FFFFFF"/>

  <circle cx="41" cy="26" r="7" fill="#FFFFFF" opacity="0.55"/>
  <path d="M41 35c-1 0-2 .1-2.9 .3c2.4 1.9 3.9 4.6 3.9 7.7v2h11v-2c0-5-5.4-9-12-9z" fill="#FFFFFF" opacity="0.55"/>
</svg>
